# xmcd
# 
# Track frame offsets:
#	150
#	17045
#	34239
#	53839
#	70146
#	85336
#	98918
#	113916
#	128710
#	150538
#	170883
#	189090
#	204637
#
# Disc length: 2954 seconds
#
# Revision: 1
# Processed by: cddbd v1.4PL0 Copyright (c) Steve Scherf et al.
# Submitted via: Audio-CD-Archiv 2.10.441
#
DISCID=ac0b880d
DTITLE=Judith Lefeber - In My Dreams
DYEAR=1900
DGENRE=blues
TTITLE0=Everybody Does
TTITLE1=Someone Like You
TTITLE2=I Will Follow You
TTITLE3=Just Give Me Your Word
TTITLE4=Falling
TTITLE5=Only In My Dreams
TTITLE6=Touch You
TTITLE7=Is It Love
TTITLE8=Man Of My Dreams
TTITLE9=In A Love Song
TTITLE10=Saving All My Love For You
TTITLE11=The Way You Look At Me
TTITLE12=The Windmills Of Your Mind
EXTD=
EXTT0=
EXTT1=
EXTT2=
EXTT3=
EXTT4=
EXTT5=
EXTT6=
EXTT7=
EXTT8=
EXTT9=
EXTT10=
EXTT11=
EXTT12=
PLAYORDER=
